# xmcd
#
# Track frame offsets:
#	182
#	17415
#	33962
#	49167
#	70430
#	93250
#	113072
#	133845
#	152245
#	170572
#
# Disc length: 2682 seconds
#
# Revision: 2
# Processed by: cddbd v1.4PL0 Copyright (c) Steve Scherf et al.
# Submitted via: audiograbber 1.82.02
#
DISCID=800a780a
DTITLE=Jeremy Robinson - Open Sky
DYEAR=1993
DGENRE=Blues
TTITLE0=Need My Help
TTITLE1=Hearts Aside
TTITLE2=Haunted By You
TTITLE3=Ease Up To You
TTITLE4=Open Sky
TTITLE5=Old Man Laughs
TTITLE6=All The Great Pretenders
TTITLE7=I Most Certainly Would Say
TTITLE8=Variations On A Theme
TTITLE9=Brilliant Mistake
EXTD=
EXTT0=
EXTT1=
EXTT2=
EXTT3=
EXTT4=
EXTT5=
EXTT6=
EXTT7=
EXTT8=
EXTT9=
PLAYORDER=
